<?xml version="1.0" encoding="utf-8"?>
<!-- Generator: Adobe Illustrator 22.1.0, SVG Export Plug-In . SVG Version: 6.00 Build 0)  -->
<svg version="1.1" id="Layer_1" xmlns="http://www.w3.org/2000/svg" xmlns:xlink="http://www.w3.org/1999/xlink" x="0px" y="0px"
	 viewBox="0 0 903.8 509.1" style="enable-background:new 0 0 903.8 509.1;" xml:space="preserve">
<style type="text/css">
	.st0{fill:#F1F1F1;}
	.st1{fill:#E6E6E6;}
	.st2{fill:#FFFFFF;}
	.st3{fill:#FA6771;}
	.st4{fill:#A0616A;}
	.st5{fill:#2F2E41;}
	.st6{fill:#3F3D56;}
	.st7{fill:#9E616A;}
	.st8{fill:#CACACA;}
</style>
<path class="st0" d="M67.9,509.1l-1-1.8c12.7-6.9,28.6-15.5,36.9-29.6c8.2-13.9,8.4-32.7,0.5-49.2c-6.7-14-19-26.6-35.6-36.3
	c-3.2-1.9-6.7-3.7-10-5.5c-8-4.3-16.4-8.7-23.2-14.9c-9.4-8.6-16.5-23-11.2-35.9c3.6-8.4,11.6-14,20.7-14.5l0.1,2
	c-8.3,0.4-15.6,5.5-18.9,13.2c-4.9,11.9,1.9,25.5,10.8,33.6c6.7,6.1,14.9,10.4,22.8,14.6c3.3,1.7,6.8,3.6,10.1,5.5
	c16.9,10,29.5,22.8,36.4,37.2c8.1,17.1,7.9,36.6-0.6,51.1C97.1,493.1,81,501.9,67.9,509.1z"/>
<ellipse class="st0" cx="57.7" cy="323.3" rx="17.5" ry="8.5"/>
<ellipse class="st0" cx="71.7" cy="379.3" rx="17.5" ry="8.5"/>
<ellipse class="st0" cx="39.7" cy="388.3" rx="17.5" ry="8.5"/>
<ellipse class="st0" cx="89.7" cy="435.3" rx="17.5" ry="8.5"/>
<ellipse class="st0" cx="124.7" cy="435.3" rx="17.5" ry="8.5"/>
<rect id="bc1144e2-c94b-4f66-aa77-0b454dfd4174" x="341" y="15.4" class="st1" width="562.8" height="267.1"/>
<rect id="ad6bb9d5-2e55-4525-b077-6ac2d5f26b45" x="357.1" y="38.3" class="st2" width="530.6" height="222.8"/>
<rect id="a1fdfaec-ef9f-458a-9330-7bb8c38fec43" x="340.8" y="0" class="st3" width="562.8" height="23.9"/>
<ellipse id="ac9f2818-2064-46b1-8104-b7d94390836e" transform="matrix(2.415439e-03 -1 1 2.415439e-03 346.5341 369.5721)" class="st2" cx="358.5" cy="11.1" rx="4.4" ry="4.4"/>
<ellipse id="bd067119-2054-4d5f-9303-2e8fa40cc410" transform="matrix(2.415453e-03 -1 1 2.415453e-03 363.3932 386.472)" class="st2" cx="375.4" cy="11.1" rx="4.4" ry="4.4"/>
<circle id="ee5e9ca0-6fca-449b-8f84-cf683813bd65" class="st2" cx="392.2" cy="11.1" r="4.4"/>
<path id="acae6c4c-8028-4596-98db-d9926d2ed09f-50" class="st1" d="M594.4,91.2c-1.1,0-2.1,1-2.1,2.1s0.9,2.1,2.1,2.1h117.8
	c1.1,0,2.1-1,2.1-2.1s-0.9-2.1-2.1-2.1H594.4z"/>
<path id="a061bcdc-636b-4d12-a036-d7339f47b36a-51" class="st1" d="M594.5,104.1c-1.1,0.1-2.1,1-2.1,2.2c0,1.1,0.9,2.1,2.1,2.1h60.1
	c1.1-0.1,2.1-1,2.1-2.2c0-1.1-0.9-2.1-2.1-2.1H594.5z"/>
<path id="e4e4593e-e83d-4128-8cd7-f0323b36c2f2-52" class="st1" d="M591.4,166.4c-1.1,0-2.1,1-2.1,2.1s0.9,2.1,2.1,2.1h220.9
	c1.1,0,2.1-1,2.1-2.1s-0.9-2.1-2.1-2.1H591.4z"/>
<path id="bf45783c-1d79-4b4f-82bb-39fc8a52f7aa-53" class="st1" d="M591.5,179.3c-1.1,0.1-2.1,1-2.1,2.2c0,1.1,0.9,2.1,2.1,2.1
	h163.2c1.1-0.1,2.1-1,2.1-2.2c0-1.1-0.9-2.1-2.1-2.1H591.5z"/>
<path id="b544fc92-6fc6-4255-93fb-dee32d880d89-54" class="st1" d="M591.4,191.9c-1.1,0.1-2.1,1-2.1,2.2c0,1.1,0.9,2.1,2.1,2.1
	h220.9c1.1-0.1,2.1-1,2.1-2.2c0-1.1-0.9-2.1-2.1-2.1H591.4z"/>
<path id="e14bb681-aaa1-4454-9da9-28d0809a146c-55" class="st1" d="M591.5,204.8c-1.1,0.1-2.1,1-2.1,2.2c0,1.1,0.9,2.1,2.1,2.1
	h163.2c1.1-0.1,2.1-1,2.1-2.2c0-1.1-0.9-2.1-2.1-2.1H591.5z"/>
<circle class="st4" cx="476" cy="156.5" r="18.7"/>
<path class="st5" d="M470,141.4c0,0,8.6,2.4,13.2,3.3s4.1-1.7,4.1-1.7s5.9,0.8,5.6,0.2s2.4-3.9-0.8-7.6s-2.3-6.5-2.3-6.5h-2.7
	l-0.8-1.1h-4.4c0,0-4.9-4.3-13.4-3s-18.7,4.6-19.6,9.7c-0.1,0.7-0.3,1.5-0.5,2.3c-2.3,9.9,2.6,19.1,7.8,27.9
	c1.2,2.1,7.4,6.8,7.2,3.6s-5.5-10.4-1.8-10.9C465.4,157.1,471.8,147.6,470,141.4z"/>
<path class="st3" d="M465.4,216.8c-3.6-0.3-7.2-0.9-10.7-1.8l0.2-3.7l1.6-29.6v-0.2h32.9l5.2,27.3l0.7,3.7c-1.4,0.6-2.8,1.1-4.2,1.5
	l0,0c-1.9,0.6-3.9,1.2-5.9,1.6c-2.7,0.5-5.4,0.9-8.1,1.2c-2.1,0.2-4.2,0.3-6.3,0.3C469,217.1,467.2,217,465.4,216.8z"/>
<path class="st5" d="M444.5,211.6c-1.4-0.6-2.7-1.2-4-1.9l-0.6-0.3c-0.4-0.2-0.8-0.4-1.2-0.6c-0.5-0.3-1-0.6-1.5-0.9
	c-0.4-0.2-0.9-0.5-1.4-0.8c-0.1,0-0.1,0-0.1,0c-1.6-1.1-3.3-2.1-4.8-3.3c-0.3-0.2-0.5-0.4-0.8-0.6l-0.3-4.4l0.4-0.2l26.4-16.8
	l0.4-0.2l0,0h3.7v13.9c2.1,3.1,3.5,9.4,4.4,17.8c0.1,1.2,0.2,2.4,0.3,3.7c-3.6-0.3-7.2-0.9-10.7-1.8c-0.4-0.1-0.7-0.2-1.1-0.3
	c-2.2-0.6-4.4-1.3-6.5-2.1c-0.7-0.3-1.3-0.5-2-0.8l0,0C444.8,211.9,444.5,211.7,444.5,211.6z"/>
<path class="st5" d="M438.6,208.8c-0.5-0.3-1-0.6-1.5-0.9c-0.4-0.2-0.9-0.5-1.4-0.8c-0.1,0-0.1,0-0.1,0c-1.6-1.1-3.3-2.1-4.8-3.3
	c-0.3-0.2-0.5-0.4-0.8-0.6c-0.1-0.1-0.3-0.2-0.4-0.3c-1-0.7-1.9-1.5-2.8-2.3l-0.1-0.1c0.9-0.7,1.9-1.2,3-1.6l1.1,0.3l7.7,2.3v3.1
	L438.6,208.8z"/>
<path class="st5" d="M503.1,208.8c-0.5,0.2-0.9,0.5-1.4,0.7c-0.1,0.1-0.2,0.2-0.3,0.2c-0.6,0.3-1.2,0.6-1.8,0.9l0,0h-0.1
	c-1.4,0.6-2.8,1.2-4.2,1.8c-1.4,0.6-2.8,1.1-4.2,1.5l0,0c-1.9,0.6-3.9,1.2-5.9,1.6c0-1.3,0.2-2.5,0.5-3.7v-0.2l1.3-21.1l-1.7-9
	l5-0.7l27.5,14.8c0,0-3.1,3-15.5,9.5C501.2,205.7,502.8,207.6,503.1,208.8z"/>
<path class="st6" d="M476.8,213.2c-2,0.2-4,0.3-6,0.3s-3.9-0.1-5.8-0.3c0.1,1.2,0.2,2.4,0.3,3.7c1.8,0.1,3.7,0.2,5.5,0.2
	c2.1,0,4.2-0.1,6.3-0.3c2.7-0.2,5.4-0.6,8.1-1.2c0-1.3,0.2-2.5,0.5-3.7v-0.2C482.8,212.4,479.8,212.9,476.8,213.2z M534.1,128.1
	c-12.2-34.9-50.7-53.6-85.6-41.4s-53.4,50.4-41.2,85.3c2.5,7.1,6.1,13.7,10.8,19.6c0.6,0.7,1.3,1.5,1.9,2.2c0,0.1,0.1,0.2,0.1,0.2
	c1.6,1.8,3.2,3.5,5,5.1c0.4,0.4,0.9,0.8,1.3,1.2l0.1,0.1c0.9,0.8,1.8,1.6,2.8,2.3c0.2,0.1,0.3,0.2,0.4,0.3c0.3,0.2,0.5,0.4,0.8,0.6
	c1.6,1.2,3.2,2.3,4.8,3.3c0.1,0,0.1,0,0.1,0c0.4,0.2,0.9,0.5,1.4,0.8c0.5,0.3,1,0.6,1.5,0.9c0.4,0.2,0.8,0.4,1.2,0.6l0.6,0.3
	c1.3,0.7,2.6,1.3,4,1.9c0.2,0.2,0.5,0.3,0.8,0.4h0.1c0.6,0.3,1.2,0.6,1.9,0.8c2.1,0.8,4.3,1.5,6.5,2.1c0.4,0.1,0.7,0.2,1.1,0.3
	c3.5,0.9,7.1,1.5,10.7,1.8c1.8,0.1,3.7,0.2,5.5,0.2c2.1,0,4.2-0.1,6.3-0.3c2.7-0.2,5.4-0.6,8.1-1.2c2-0.5,3.9-1,5.9-1.6l0,0
	c1.5-0.5,2.8-1,4.2-1.5c1.5-0.5,2.8-1.1,4.2-1.8h0.1l0,0c0.6-0.3,1.2-0.6,1.8-0.9c0.1-0.1,0.2-0.1,0.3-0.2c0.5-0.2,0.9-0.5,1.4-0.7
	c0.1,0,0.1,0,0.1,0c1.2-0.7,2.3-1.4,3.5-2.1c0.4-0.2,0.7-0.4,1-0.6c0.5-0.3,1-0.6,1.4-0.9c0.6-0.4,1.2-0.9,1.8-1.3
	c0.1-0.1,0.3-0.3,0.5-0.4c1.4-1.1,2.8-2.2,4.1-3.4C535.6,182.1,543,153.7,534.1,128.1L534.1,128.1z M514.3,196.2
	c-1.7,1.6-3.4,3-5.1,4.6c-0.4,0.3-0.8,0.6-1.2,0.9c-0.4,0.3-0.8,0.6-1.2,0.9c-0.4,0.2-0.7,0.5-1.1,0.7c0,0.1-0.1,0.1-0.1,0.1
	c-0.3,0.2-0.5,0.3-0.8,0.5c-0.8,0.5-1.7,1-2.5,1.5c-0.2,0.1-0.4,0.2-0.6,0.3c-0.1,0.1-0.2,0.1-0.3,0.2c-0.5,0.2-0.9,0.5-1.4,0.7
	c-0.1,0-0.1,0.1-0.2,0.1s-0.1,0-0.1,0c-0.4,0.2-0.7,0.3-1,0.5c-0.3,0.1-0.5,0.3-0.8,0.4c-1.1,0.5-2.3,1-3.4,1.5
	c-1.2,0.5-2.4,0.9-3.6,1.3c-0.3,0.1-0.6,0.2-0.9,0.3c-1.4,0.5-2.8,0.9-4.3,1.2c-2.9,0.7-5.9,1.2-8.9,1.5c-2,0.2-4,0.3-6,0.3
	s-3.9-0.1-5.8-0.3c-3.5-0.3-6.9-0.9-10.2-1.8c-0.1,0-0.3-0.1-0.4-0.1c-2.7-0.7-5.4-1.6-8-2.7c-0.1-0.1-0.3-0.1-0.4-0.2
	c-0.1-0.1-0.3-0.1-0.4-0.2c-0.1-0.1-0.3-0.1-0.4-0.2c-1.1-0.5-2.2-1-3.3-1.6l-0.5-0.3c-1-0.5-1.9-1-2.9-1.6c-0.3-0.2-0.7-0.4-1-0.6
	c-0.4-0.2-0.7-0.5-1.1-0.7c-0.1-0.1-0.2-0.1-0.3-0.2c-0.8-0.6-1.7-1.2-2.5-1.8c-0.6-0.5-1.1-0.9-1.7-1.3c-0.4-0.3-0.8-0.6-1.1-0.9
	c-0.2-0.2-0.5-0.4-0.7-0.6c-0.3-0.3-0.6-0.5-0.9-0.8c-0.4-0.4-0.9-0.8-1.3-1.2c-1.7-1.6-3.3-3.2-4.8-5c-0.5-0.6-1-1.2-1.5-1.8
	c-0.1-0.1-0.2-0.3-0.3-0.4c-21.7-27.4-17.1-67.2,10.3-88.9s67.2-17.1,88.9,10.3C540.9,136.6,538.2,173.7,514.3,196.2L514.3,196.2z"
	/>
<polygon class="st4" points="163.4,496.7 175.7,496.7 181.5,449.4 163.4,449.4 "/>
<path class="st5" d="M160.3,492.7h24.1l0,0c8.5,0,15.4,6.9,15.4,15.4v0.5h-39.5V492.7z"/>
<polygon class="st4" points="209.4,496.7 221.7,496.7 227.5,449.4 209.4,449.4 "/>
<path class="st5" d="M206.3,492.7h24.1l0,0c8.5,0,15.4,6.9,15.4,15.4v0.5h-39.5V492.7z"/>
<path class="st7" d="M126.2,309.8c3.8-4,3.6-10.4-0.5-14.2c-0.4-0.4-0.9-0.8-1.4-1.1l8.5-34.7l-17.5,6.2l-5.4,32
	c-2.7,4.9-1,11.1,3.9,13.8C117.9,314.1,123,313.2,126.2,309.8L126.2,309.8z"/>
<path class="st7" d="M256.3,306.8c-3.8-4-3.6-10.4,0.5-14.2c0.4-0.4,0.9-0.8,1.4-1.1l-8.5-34.7l17.5,6.2l5.4,32
	c2.7,4.9,1,11.1-3.9,13.8C264.6,311.1,259.5,310.3,256.3,306.8z"/>
<polygon class="st5" points="142.4,285.5 159.4,484.6 184.2,482.3 194.2,328.5 203,389.4 204.8,486.1 227.3,484.6 239.8,380.5 
	236.7,279.7 151.3,271.1 "/>
<ellipse transform="matrix(0.9985 -5.530040e-02 5.530040e-02 0.9985 -4.0572 10.5776)" class="st4" cx="189.1" cy="78.6" rx="25.8" ry="25.8"/>
<path class="st5" d="M181,57.9c0,0,12.1,3.2,18.3,4.5s5.6-2.4,5.6-2.4s8.1,1.1,7.7,0.2c-0.5-0.8,3.4-5.3-1.1-10.5
	c-4.5-5.1-3.2-9-3.2-9h-3.9l-1.1-1.5h-6c0,0-6.7-5.9-18.5-4.1s-25.8,6.3-27.1,13.4c-0.2,1-0.4,2.1-0.7,3.2
	c-3.2,13.7,3.7,26.4,10.8,38.5c1.8,3,10.3,9.5,10,5s-7.7-14.5-2.5-15.1C174.5,79.4,183.3,66.3,181,57.9z"/>
<path class="st3" d="M162.3,113.1h45.4l32.1,169.6c0,0-28,2.4-44,8.4s-42.6-13.7-42.6-13.7L162.3,113.1z"/>
<path class="st5" d="M167.9,132.2v-19.1h-5.1L125.2,137l8.2,130.9c0,0,9.7,43.7,24.3,43.2S183.6,155,167.9,132.2z"/>
<path class="st5" d="M137.3,140.5l-12.1-3.6c0,0-8.9,2.6-8.9,11.6s-7.7,136.9-7.7,136.9l24.5,2.2l5.2-65L137.3,140.5z"/>
<path class="st5" d="M204.3,125.6l-2.4-12.5l6.9-1l25,10c0,0,22.6,164.5,12.6,169.5s-16.8,1.1-16.8,1.1S196.7,171.4,202.5,155
	L204.3,125.6z"/>
<path class="st5" d="M216.4,124.7l4.3-1.9c0,0,12.5-6.2,19.6,6.3s32.1,152.5,32.1,152.5l-20.6,3.9l-15.4-50.4L216.4,124.7z"/>
<path class="st8" d="M382,509.1H1c-0.6,0-1-0.4-1-1c0-0.6,0.4-1,1-1h381c0.6,0,1,0.4,1,1S382.5,509.1,382,509.1z"/>
</svg>
