<?xml version="1.0" encoding="utf-8"?>
<!-- Generator: Adobe Illustrator 22.1.0, SVG Export Plug-In . SVG Version: 6.00 Build 0)  -->
<svg version="1.1" id="Layer_1" xmlns="http://www.w3.org/2000/svg" xmlns:xlink="http://www.w3.org/1999/xlink" x="0px" y="0px"
	 viewBox="0 0 448 512" style="enable-background:new 0 0 448 512;" xml:space="preserve">
<style type="text/css">
	.st0{fill:url(#SVGID_1_);stroke:#000000;stroke-width:0.25;stroke-miterlimit:10;}
</style>
<linearGradient id="SVGID_1_" gradientUnits="userSpaceOnUse" x1="224" y1="32" x2="224" y2="480">
	<stop  offset="0" style="stop-color:#FFB199"/>
	<stop  offset="1" style="stop-color:#FF0844"/>
</linearGradient>
<path class="st0" d="M384,32c35.3,0,64,28.7,64,64v320c0,35.3-28.7,64-64,64H64c-35.3,0-64-28.7-64-64V96c0-35.3,28.6-64,64-64H384z
	 M128,224c-17.7,0-32,14.3-32,32v96c0,17.7,14.3,32,32,32s32-14.3,32-32v-96C160,238.3,145.7,224,128,224z M192,352
	c0,17.7,14.3,32,32,32s32-14.3,32-32V160c0-17.7-14.3-32-32-32s-32,14.3-32,32V352z M320,288c-17.7,0-32,14.3-32,32v32
	c0,17.7,14.3,32,32,32s32-14.3,32-32v-32C352,302.3,337.7,288,320,288z"/>
</svg>
